<mxfile host="app.diagrams.net" modified="2023-09-26T19:30:24.328Z" agent="Mozilla/5.0 (Windows NT 10.0; Win64; x64) AppleWebKit/537.36 (KHTML, like Gecko) Chrome/116.0.0.0 Safari/537.36" etag="fpm8GtqoulC6Cu5qrIt2" version="21.8.0" type="github" pages="2">
  <diagram name="general" id="eKHQWl-Uu4aiE2fwnmNP">
    <mxGraphModel dx="1434" dy="750" grid="1" gridSize="10" guides="1" tooltips="1" connect="1" arrows="1" fold="1" page="1" pageScale="1" pageWidth="850" pageHeight="1100" math="0" shadow="0">
      <root>
        <mxCell id="0" />
        <mxCell id="1" parent="0" />
      </root>
    </mxGraphModel>
  </diagram>
  <diagram id="kbC4z21ot8EY-zVPjOLZ" name="dstof">
    <mxGraphModel dx="1434" dy="750" grid="1" gridSize="10" guides="1" tooltips="1" connect="1" arrows="1" fold="1" page="1" pageScale="1" pageWidth="850" pageHeight="1100" math="0" shadow="0">
      <root>
        <mxCell id="0" />
        <mxCell id="1" parent="0" />
        <mxCell id="eh9yhnDu4gE9F6cNk2h8-1" value="Cluster: Digital Store of the Future Production" style="rounded=0;whiteSpace=wrap;html=1;verticalAlign=top;align=right;" vertex="1" parent="1">
          <mxGeometry x="40" y="120" width="760" height="520" as="geometry" />
        </mxCell>
        <mxCell id="eh9yhnDu4gE9F6cNk2h8-2" value="Web Frontend" style="rounded=0;whiteSpace=wrap;html=1;verticalAlign=top;align=center;" vertex="1" parent="1">
          <mxGeometry x="240" y="180" width="530" height="60" as="geometry" />
        </mxCell>
        <mxCell id="eh9yhnDu4gE9F6cNk2h8-3" value="Digital Experience Layer" style="rounded=0;whiteSpace=wrap;html=1;verticalAlign=top;align=center;" vertex="1" parent="1">
          <mxGeometry x="240" y="260" width="530" height="60" as="geometry" />
        </mxCell>
        <mxCell id="eh9yhnDu4gE9F6cNk2h8-4" value="Domain/Orchestration Layer" style="rounded=0;whiteSpace=wrap;html=1;verticalAlign=top;align=center;" vertex="1" parent="1">
          <mxGeometry x="240" y="350" width="530" height="60" as="geometry" />
        </mxCell>
        <mxCell id="eh9yhnDu4gE9F6cNk2h8-5" value="Core Layer&lt;br&gt;&lt;br&gt;" style="rounded=0;whiteSpace=wrap;html=1;verticalAlign=top;align=center;" vertex="1" parent="1">
          <mxGeometry x="240" y="440" width="530" height="60" as="geometry" />
        </mxCell>
        <mxCell id="eh9yhnDu4gE9F6cNk2h8-7" value="Node Pool 1 = DXL Optimized" style="rounded=0;whiteSpace=wrap;html=1;" vertex="1" parent="1">
          <mxGeometry x="70" y="540" width="200" height="90" as="geometry" />
        </mxCell>
        <mxCell id="eh9yhnDu4gE9F6cNk2h8-10" value="Node Pool 2 = General Purpose" style="rounded=0;whiteSpace=wrap;html=1;" vertex="1" parent="1">
          <mxGeometry x="315" y="540" width="200" height="90" as="geometry" />
        </mxCell>
        <mxCell id="eh9yhnDu4gE9F6cNk2h8-11" value="Node Pool 3 = General Purpose w/Service Mesh" style="rounded=0;whiteSpace=wrap;html=1;" vertex="1" parent="1">
          <mxGeometry x="560" y="540" width="200" height="90" as="geometry" />
        </mxCell>
        <mxCell id="eh9yhnDu4gE9F6cNk2h8-18" value="Quota = Small and Guaranteed&lt;br&gt;Node Selector = Pool 2&lt;br&gt;Anti-affinity = Web Frontend" style="text;html=1;align=left;verticalAlign=middle;resizable=0;points=[];autosize=1;strokeColor=none;fillColor=none;" vertex="1" parent="1">
          <mxGeometry x="45" y="180" width="190" height="60" as="geometry" />
        </mxCell>
        <mxCell id="eh9yhnDu4gE9F6cNk2h8-19" value="Quota = Large and Guaranteed&lt;br&gt;Node Selector = Pool 1&lt;br&gt;Anti-affinity = DXL" style="text;html=1;align=left;verticalAlign=middle;resizable=0;points=[];autosize=1;strokeColor=none;fillColor=none;" vertex="1" parent="1">
          <mxGeometry x="45" y="260" width="190" height="60" as="geometry" />
        </mxCell>
        <mxCell id="eh9yhnDu4gE9F6cNk2h8-20" value="Quota = Medium and Burstable&lt;br&gt;Node Selector = Pool 3" style="text;html=1;align=left;verticalAlign=middle;resizable=0;points=[];autosize=1;strokeColor=none;fillColor=none;" vertex="1" parent="1">
          <mxGeometry x="45" y="360" width="190" height="40" as="geometry" />
        </mxCell>
        <mxCell id="eh9yhnDu4gE9F6cNk2h8-21" value="Quota = Large and Burstable&lt;br&gt;Node Selector = Pool 3" style="text;html=1;align=left;verticalAlign=middle;resizable=0;points=[];autosize=1;strokeColor=none;fillColor=none;" vertex="1" parent="1">
          <mxGeometry x="45" y="450" width="180" height="40" as="geometry" />
        </mxCell>
        <mxCell id="eh9yhnDu4gE9F6cNk2h8-29" value="" style="sketch=0;html=1;dashed=0;whitespace=wrap;fillColor=#2875E2;strokeColor=#ffffff;points=[[0.005,0.63,0],[0.1,0.2,0],[0.9,0.2,0],[0.5,0,0],[0.995,0.63,0],[0.72,0.99,0],[0.5,1,0],[0.28,0.99,0]];verticalLabelPosition=bottom;align=center;verticalAlign=top;shape=mxgraph.kubernetes.icon;prIcon=ns" vertex="1" parent="1">
          <mxGeometry x="240" y="440" width="37" height="40" as="geometry" />
        </mxCell>
        <mxCell id="eh9yhnDu4gE9F6cNk2h8-30" value="" style="sketch=0;html=1;dashed=0;whitespace=wrap;fillColor=#2875E2;strokeColor=#ffffff;points=[[0.005,0.63,0],[0.1,0.2,0],[0.9,0.2,0],[0.5,0,0],[0.995,0.63,0],[0.72,0.99,0],[0.5,1,0],[0.28,0.99,0]];verticalLabelPosition=bottom;align=center;verticalAlign=top;shape=mxgraph.kubernetes.icon;prIcon=ns" vertex="1" parent="1">
          <mxGeometry x="240" y="350" width="37" height="40" as="geometry" />
        </mxCell>
        <mxCell id="eh9yhnDu4gE9F6cNk2h8-31" value="" style="sketch=0;html=1;dashed=0;whitespace=wrap;fillColor=#2875E2;strokeColor=#ffffff;points=[[0.005,0.63,0],[0.1,0.2,0],[0.9,0.2,0],[0.5,0,0],[0.995,0.63,0],[0.72,0.99,0],[0.5,1,0],[0.28,0.99,0]];verticalLabelPosition=bottom;align=center;verticalAlign=top;shape=mxgraph.kubernetes.icon;prIcon=ns" vertex="1" parent="1">
          <mxGeometry x="240" y="260" width="37" height="40" as="geometry" />
        </mxCell>
        <mxCell id="eh9yhnDu4gE9F6cNk2h8-32" value="" style="sketch=0;html=1;dashed=0;whitespace=wrap;fillColor=#2875E2;strokeColor=#ffffff;points=[[0.005,0.63,0],[0.1,0.2,0],[0.9,0.2,0],[0.5,0,0],[0.995,0.63,0],[0.72,0.99,0],[0.5,1,0],[0.28,0.99,0]];verticalLabelPosition=bottom;align=center;verticalAlign=top;shape=mxgraph.kubernetes.icon;prIcon=ns" vertex="1" parent="1">
          <mxGeometry x="240" y="180" width="37" height="40" as="geometry" />
        </mxCell>
        <mxCell id="eh9yhnDu4gE9F6cNk2h8-33" value="Key Points&lt;br&gt;&lt;br&gt;&lt;div style=&quot;&quot;&gt;&lt;span style=&quot;background-color: initial;&quot;&gt;1. Cluster resources should not be shared across testing and live production traffic.&amp;nbsp;&lt;/span&gt;&lt;span style=&quot;background-color: initial;&quot;&gt;Testing puts stress on production infrastructure, needs to be segregated.&lt;/span&gt;&lt;/div&gt;&lt;div style=&quot;&quot;&gt;&lt;span style=&quot;background-color: initial;&quot;&gt;2. Namespaces should segregate &#39;application&#39; or domain; as-well-as release environment (e.g. QA and Stress).&amp;nbsp;&lt;/span&gt;&lt;/div&gt;&lt;div style=&quot;&quot;&gt;&lt;span style=&quot;background-color: initial;&quot;&gt;3. Namespaces are assigned quotas that enforce a particular resource QoS (e.q. and prevent run-away configurations or pods.&lt;/span&gt;&lt;/div&gt;&lt;div style=&quot;&quot;&gt;&lt;span style=&quot;background-color: initial;&quot;&gt;4. Node selectors are defined per namespace to place workloads on the appropriate node type.&amp;nbsp;&lt;/span&gt;&lt;/div&gt;&lt;div style=&quot;&quot;&gt;&lt;span style=&quot;background-color: initial;&quot;&gt;&lt;span style=&quot;white-space: pre;&quot;&gt;&#x9;&lt;/span&gt;A.. Example: More expensive compute for GPU or remove need to have Istio daemons on each node.&amp;nbsp;&lt;/span&gt;&lt;span style=&quot;background-color: initial;&quot;&gt;&amp;nbsp;&lt;/span&gt;&lt;/div&gt;&lt;div style=&quot;&quot;&gt;&lt;span style=&quot;background-color: initial;&quot;&gt;5. HPAs should be used by each deployment and defined using common metrics; custom metrics can be used but need to be thoroughly tested.&lt;/span&gt;&lt;/div&gt;&lt;div style=&quot;&quot;&gt;&lt;span style=&quot;background-color: initial;&quot;&gt;6. VPAs should be used where HPA scaling needs additional startup considerations.&amp;nbsp;&lt;/span&gt;&lt;/div&gt;&lt;div style=&quot;&quot;&gt;&lt;span style=&quot;background-color: initial;&quot;&gt;&lt;br&gt;&lt;/span&gt;&lt;/div&gt;" style="text;html=1;align=left;verticalAlign=middle;resizable=0;points=[];autosize=1;strokeColor=none;fillColor=none;" vertex="1" parent="1">
          <mxGeometry y="650" width="850" height="160" as="geometry" />
        </mxCell>
        <mxCell id="eh9yhnDu4gE9F6cNk2h8-34" value="" style="sketch=0;html=1;dashed=0;whitespace=wrap;fillColor=#2875E2;strokeColor=#ffffff;points=[[0.005,0.63,0],[0.1,0.2,0],[0.9,0.2,0],[0.5,0,0],[0.995,0.63,0],[0.72,0.99,0],[0.5,1,0],[0.28,0.99,0]];verticalLabelPosition=bottom;align=center;verticalAlign=top;shape=mxgraph.kubernetes.icon;prIcon=node" vertex="1" parent="1">
          <mxGeometry x="240" y="540" width="30" height="30" as="geometry" />
        </mxCell>
        <mxCell id="eh9yhnDu4gE9F6cNk2h8-36" value="" style="sketch=0;html=1;dashed=0;whitespace=wrap;fillColor=#2875E2;strokeColor=#ffffff;points=[[0.005,0.63,0],[0.1,0.2,0],[0.9,0.2,0],[0.5,0,0],[0.995,0.63,0],[0.72,0.99,0],[0.5,1,0],[0.28,0.99,0]];verticalLabelPosition=bottom;align=center;verticalAlign=top;shape=mxgraph.kubernetes.icon;prIcon=node" vertex="1" parent="1">
          <mxGeometry x="730" y="540" width="30" height="30" as="geometry" />
        </mxCell>
        <mxCell id="eh9yhnDu4gE9F6cNk2h8-37" value="" style="sketch=0;html=1;dashed=0;whitespace=wrap;fillColor=#2875E2;strokeColor=#ffffff;points=[[0.005,0.63,0],[0.1,0.2,0],[0.9,0.2,0],[0.5,0,0],[0.995,0.63,0],[0.72,0.99,0],[0.5,1,0],[0.28,0.99,0]];verticalLabelPosition=bottom;align=center;verticalAlign=top;shape=mxgraph.kubernetes.icon;prIcon=node" vertex="1" parent="1">
          <mxGeometry x="485" y="540" width="30" height="30" as="geometry" />
        </mxCell>
        <mxCell id="eh9yhnDu4gE9F6cNk2h8-39" value="HPA per deployment" style="rounded=1;whiteSpace=wrap;html=1;fillColor=#eeeeee;strokeColor=#36393d;" vertex="1" parent="1">
          <mxGeometry x="350" y="200" width="80" height="30" as="geometry" />
        </mxCell>
        <mxCell id="eh9yhnDu4gE9F6cNk2h8-40" value="HPA per deployment" style="rounded=1;whiteSpace=wrap;html=1;fillColor=#eeeeee;strokeColor=#36393d;" vertex="1" parent="1">
          <mxGeometry x="350" y="280" width="80" height="30" as="geometry" />
        </mxCell>
        <mxCell id="eh9yhnDu4gE9F6cNk2h8-41" value="HPA per deployment" style="rounded=1;whiteSpace=wrap;html=1;fillColor=#eeeeee;strokeColor=#36393d;" vertex="1" parent="1">
          <mxGeometry x="350" y="370" width="80" height="30" as="geometry" />
        </mxCell>
        <mxCell id="eh9yhnDu4gE9F6cNk2h8-42" value="HPA per deployment" style="rounded=1;whiteSpace=wrap;html=1;fillColor=#eeeeee;strokeColor=#36393d;" vertex="1" parent="1">
          <mxGeometry x="350" y="460" width="80" height="30" as="geometry" />
        </mxCell>
        <mxCell id="eh9yhnDu4gE9F6cNk2h8-43" value="VPA per deployment" style="rounded=1;whiteSpace=wrap;html=1;fillColor=#eeeeee;strokeColor=#36393d;" vertex="1" parent="1">
          <mxGeometry x="570" y="280" width="80" height="30" as="geometry" />
        </mxCell>
      </root>
    </mxGraphModel>
  </diagram>
</mxfile>
